<mxfile host="app.diagrams.net" modified="2021-05-18T04:06:28.606Z" agent="5.0 (Windows NT 10.0; WOW64) AppleWebKit/537.36 (KHTML, like Gecko) Chrome/89.0.4389.82 Safari/537.36" etag="NN1NQVkh52NC6o5YG3LJ" version="14.6.13" type="github">
  <diagram id="J62VowWL7jAZoyvOlwZC" name="Page-1">
    <mxGraphModel dx="1319" dy="1852" grid="1" gridSize="10" guides="1" tooltips="1" connect="1" arrows="1" fold="1" page="1" pageScale="1" pageWidth="850" pageHeight="1100" math="0" shadow="0">
      <root>
        <mxCell id="0" />
        <mxCell id="1" parent="0" />
        <mxCell id="_3_Tq_P-B7PArioMOfRt-33" value="" style="edgeStyle=orthogonalEdgeStyle;rounded=0;orthogonalLoop=1;jettySize=auto;html=1;" edge="1" parent="1" source="_3_Tq_P-B7PArioMOfRt-22" target="_3_Tq_P-B7PArioMOfRt-2">
          <mxGeometry relative="1" as="geometry" />
        </mxCell>
        <mxCell id="_3_Tq_P-B7PArioMOfRt-34" value="" style="edgeStyle=orthogonalEdgeStyle;rounded=0;orthogonalLoop=1;jettySize=auto;html=1;" edge="1" parent="1" source="_3_Tq_P-B7PArioMOfRt-22" target="_3_Tq_P-B7PArioMOfRt-30">
          <mxGeometry relative="1" as="geometry" />
        </mxCell>
        <mxCell id="_3_Tq_P-B7PArioMOfRt-22" value="" style="rounded=1;whiteSpace=wrap;html=1;" vertex="1" parent="1">
          <mxGeometry x="-16.5" y="30" width="435" height="190" as="geometry" />
        </mxCell>
        <mxCell id="_3_Tq_P-B7PArioMOfRt-19" value="" style="rounded=1;whiteSpace=wrap;html=1;" vertex="1" parent="1">
          <mxGeometry x="-7" y="307" width="447" height="280" as="geometry" />
        </mxCell>
        <mxCell id="_3_Tq_P-B7PArioMOfRt-18" value="" style="whiteSpace=wrap;html=1;aspect=fixed;" vertex="1" parent="1">
          <mxGeometry x="570" y="220" width="227.5" height="130" as="geometry" />
        </mxCell>
        <mxCell id="_3_Tq_P-B7PArioMOfRt-2" value="" style="image;html=1;image=img/lib/clip_art/networking/Router_Icon_128x128.png" vertex="1" parent="1">
          <mxGeometry x="151" y="307" width="100" height="90" as="geometry" />
        </mxCell>
        <mxCell id="_3_Tq_P-B7PArioMOfRt-3" value="" style="aspect=fixed;perimeter=ellipsePerimeter;html=1;align=center;shadow=0;dashed=0;spacingTop=3;image;image=img/lib/active_directory/domain_controller.svg;" vertex="1" parent="1">
          <mxGeometry x="153" y="55" width="98" height="140" as="geometry" />
        </mxCell>
        <mxCell id="_3_Tq_P-B7PArioMOfRt-5" value="" style="shape=mxgraph.cisco.servers.standard_host;html=1;pointerEvents=1;dashed=0;fillColor=#036897;strokeColor=#ffffff;strokeWidth=2;verticalLabelPosition=bottom;verticalAlign=top;align=center;outlineConnect=0;" vertex="1" parent="1">
          <mxGeometry x="50" y="480" width="63" height="80" as="geometry" />
        </mxCell>
        <mxCell id="_3_Tq_P-B7PArioMOfRt-6" value="" style="shape=mxgraph.cisco.servers.standard_host;html=1;pointerEvents=1;dashed=0;fillColor=#036897;strokeColor=#ffffff;strokeWidth=2;verticalLabelPosition=bottom;verticalAlign=top;align=center;outlineConnect=0;" vertex="1" parent="1">
          <mxGeometry x="160.5" y="480" width="57" height="80" as="geometry" />
        </mxCell>
        <mxCell id="_3_Tq_P-B7PArioMOfRt-7" value="" style="shape=mxgraph.cisco.servers.standard_host;html=1;pointerEvents=1;dashed=0;fillColor=#036897;strokeColor=#ffffff;strokeWidth=2;verticalLabelPosition=bottom;verticalAlign=top;align=center;outlineConnect=0;" vertex="1" parent="1">
          <mxGeometry x="260" y="480" width="53" height="80" as="geometry" />
        </mxCell>
        <mxCell id="_3_Tq_P-B7PArioMOfRt-8" value="" style="shape=mxgraph.cisco.servers.standard_host;html=1;pointerEvents=1;dashed=0;fillColor=#036897;strokeColor=#ffffff;strokeWidth=2;verticalLabelPosition=bottom;verticalAlign=top;align=center;outlineConnect=0;" vertex="1" parent="1">
          <mxGeometry x="360" y="480" width="53" height="80" as="geometry" />
        </mxCell>
        <mxCell id="_3_Tq_P-B7PArioMOfRt-10" value="" style="endArrow=none;html=1;exitX=0.5;exitY=0;exitDx=0;exitDy=0;exitPerimeter=0;entryX=0.5;entryY=1;entryDx=0;entryDy=0;" edge="1" parent="1" source="_3_Tq_P-B7PArioMOfRt-5" target="_3_Tq_P-B7PArioMOfRt-2">
          <mxGeometry width="50" height="50" relative="1" as="geometry">
            <mxPoint x="209.5" y="510" as="sourcePoint" />
            <mxPoint x="209.5" y="400" as="targetPoint" />
          </mxGeometry>
        </mxCell>
        <mxCell id="_3_Tq_P-B7PArioMOfRt-11" value="" style="endArrow=none;html=1;exitX=0.5;exitY=0;exitDx=0;exitDy=0;exitPerimeter=0;entryX=0.5;entryY=1;entryDx=0;entryDy=0;" edge="1" parent="1" source="_3_Tq_P-B7PArioMOfRt-6" target="_3_Tq_P-B7PArioMOfRt-2">
          <mxGeometry width="50" height="50" relative="1" as="geometry">
            <mxPoint x="121.5" y="490" as="sourcePoint" />
            <mxPoint x="220" y="410" as="targetPoint" />
          </mxGeometry>
        </mxCell>
        <mxCell id="_3_Tq_P-B7PArioMOfRt-12" value="" style="endArrow=none;html=1;exitX=0.5;exitY=0;exitDx=0;exitDy=0;exitPerimeter=0;entryX=0.5;entryY=1;entryDx=0;entryDy=0;" edge="1" parent="1" source="_3_Tq_P-B7PArioMOfRt-7" target="_3_Tq_P-B7PArioMOfRt-2">
          <mxGeometry width="50" height="50" relative="1" as="geometry">
            <mxPoint x="131.5" y="500" as="sourcePoint" />
            <mxPoint x="230" y="420" as="targetPoint" />
          </mxGeometry>
        </mxCell>
        <mxCell id="_3_Tq_P-B7PArioMOfRt-13" value="" style="endArrow=none;html=1;exitX=0.5;exitY=0;exitDx=0;exitDy=0;exitPerimeter=0;entryX=0.5;entryY=1;entryDx=0;entryDy=0;" edge="1" parent="1" source="_3_Tq_P-B7PArioMOfRt-8" target="_3_Tq_P-B7PArioMOfRt-2">
          <mxGeometry width="50" height="50" relative="1" as="geometry">
            <mxPoint x="271.5" y="490" as="sourcePoint" />
            <mxPoint x="220" y="410" as="targetPoint" />
          </mxGeometry>
        </mxCell>
        <mxCell id="_3_Tq_P-B7PArioMOfRt-14" value="Flow TableÂ " style="swimlane;fontStyle=0;childLayout=stackLayout;horizontal=1;startSize=26;horizontalStack=0;resizeParent=1;resizeParentMax=0;resizeLast=0;collapsible=1;marginBottom=0;" vertex="1" parent="1">
          <mxGeometry x="620" y="236" width="140" height="104" as="geometry" />
        </mxCell>
        <mxCell id="_3_Tq_P-B7PArioMOfRt-15" value="Item 1" style="text;strokeColor=none;fillColor=none;align=left;verticalAlign=top;spacingLeft=4;spacingRight=4;overflow=hidden;rotatable=0;points=[[0,0.5],[1,0.5]];portConstraint=eastwest;" vertex="1" parent="_3_Tq_P-B7PArioMOfRt-14">
          <mxGeometry y="26" width="140" height="26" as="geometry" />
        </mxCell>
        <mxCell id="_3_Tq_P-B7PArioMOfRt-16" value="Item 2" style="text;strokeColor=none;fillColor=none;align=left;verticalAlign=top;spacingLeft=4;spacingRight=4;overflow=hidden;rotatable=0;points=[[0,0.5],[1,0.5]];portConstraint=eastwest;" vertex="1" parent="_3_Tq_P-B7PArioMOfRt-14">
          <mxGeometry y="52" width="140" height="26" as="geometry" />
        </mxCell>
        <mxCell id="_3_Tq_P-B7PArioMOfRt-17" value="Item 3" style="text;strokeColor=none;fillColor=none;align=left;verticalAlign=top;spacingLeft=4;spacingRight=4;overflow=hidden;rotatable=0;points=[[0,0.5],[1,0.5]];portConstraint=eastwest;" vertex="1" parent="_3_Tq_P-B7PArioMOfRt-14">
          <mxGeometry y="78" width="140" height="26" as="geometry" />
        </mxCell>
        <mxCell id="_3_Tq_P-B7PArioMOfRt-20" value="&lt;font style=&quot;font-size: 16px&quot;&gt;Data Plain&lt;/font&gt;" style="text;html=1;strokeColor=none;fillColor=none;align=center;verticalAlign=middle;whiteSpace=wrap;rounded=0;" vertex="1" parent="1">
          <mxGeometry x="320" y="320" width="80" height="30" as="geometry" />
        </mxCell>
        <mxCell id="_3_Tq_P-B7PArioMOfRt-23" value="&lt;font style=&quot;font-size: 16px&quot;&gt;Control Plain&lt;/font&gt;" style="text;html=1;strokeColor=none;fillColor=none;align=center;verticalAlign=middle;whiteSpace=wrap;rounded=0;" vertex="1" parent="1">
          <mxGeometry x="300" y="60" width="100" height="20" as="geometry" />
        </mxCell>
        <mxCell id="_3_Tq_P-B7PArioMOfRt-24" value="SDN Controller" style="text;html=1;strokeColor=none;fillColor=none;align=center;verticalAlign=middle;whiteSpace=wrap;rounded=0;" vertex="1" parent="1">
          <mxGeometry x="61.5" y="70" width="78.5" height="40" as="geometry" />
        </mxCell>
        <mxCell id="_3_Tq_P-B7PArioMOfRt-25" value="OpenFlow Switch" style="text;html=1;strokeColor=none;fillColor=none;align=center;verticalAlign=middle;whiteSpace=wrap;rounded=0;" vertex="1" parent="1">
          <mxGeometry x="90" y="330" width="60" height="50" as="geometry" />
        </mxCell>
        <mxCell id="_3_Tq_P-B7PArioMOfRt-26" value="Host 1" style="text;html=1;strokeColor=none;fillColor=none;align=center;verticalAlign=middle;whiteSpace=wrap;rounded=0;" vertex="1" parent="1">
          <mxGeometry x="21.5" y="460" width="40" height="20" as="geometry" />
        </mxCell>
        <mxCell id="_3_Tq_P-B7PArioMOfRt-27" value="Host 2" style="text;html=1;strokeColor=none;fillColor=none;align=center;verticalAlign=middle;whiteSpace=wrap;rounded=0;" vertex="1" parent="1">
          <mxGeometry x="140" y="460" width="40" height="20" as="geometry" />
        </mxCell>
        <mxCell id="_3_Tq_P-B7PArioMOfRt-28" value="Host 3" style="text;html=1;strokeColor=none;fillColor=none;align=center;verticalAlign=middle;whiteSpace=wrap;rounded=0;" vertex="1" parent="1">
          <mxGeometry x="220" y="460" width="40" height="20" as="geometry" />
        </mxCell>
        <mxCell id="_3_Tq_P-B7PArioMOfRt-29" value="Host 4" style="text;html=1;strokeColor=none;fillColor=none;align=center;verticalAlign=middle;whiteSpace=wrap;rounded=0;" vertex="1" parent="1">
          <mxGeometry x="320" y="460" width="40" height="20" as="geometry" />
        </mxCell>
        <mxCell id="_3_Tq_P-B7PArioMOfRt-30" value="" style="rounded=1;whiteSpace=wrap;html=1;" vertex="1" parent="1">
          <mxGeometry x="-16.5" y="-250" width="435" height="190" as="geometry" />
        </mxCell>
        <mxCell id="_3_Tq_P-B7PArioMOfRt-35" value="Southbound protocol (OpenFlow)" style="text;html=1;strokeColor=none;fillColor=none;align=center;verticalAlign=middle;whiteSpace=wrap;rounded=0;" vertex="1" parent="1">
          <mxGeometry x="226.5" y="236" width="120" height="50" as="geometry" />
        </mxCell>
        <mxCell id="_3_Tq_P-B7PArioMOfRt-36" value="Northbound protocol" style="text;html=1;align=center;verticalAlign=middle;resizable=0;points=[];autosize=1;strokeColor=none;" vertex="1" parent="1">
          <mxGeometry x="230" y="-30" width="120" height="20" as="geometry" />
        </mxCell>
        <mxCell id="_3_Tq_P-B7PArioMOfRt-37" value="" style="image;html=1;image=img/lib/clip_art/computers/Virtual_Application_128x128.png" vertex="1" parent="1">
          <mxGeometry x="161" y="-210" width="99" height="90" as="geometry" />
        </mxCell>
        <mxCell id="_3_Tq_P-B7PArioMOfRt-38" value="RYU" style="text;html=1;strokeColor=none;fillColor=none;align=center;verticalAlign=middle;whiteSpace=wrap;rounded=0;" vertex="1" parent="1">
          <mxGeometry x="90" y="-180" width="40" height="20" as="geometry" />
        </mxCell>
        <mxCell id="_3_Tq_P-B7PArioMOfRt-39" value="&lt;font style=&quot;font-size: 16px&quot;&gt;Application Plain&lt;/font&gt;" style="text;html=1;strokeColor=none;fillColor=none;align=center;verticalAlign=middle;whiteSpace=wrap;rounded=0;" vertex="1" parent="1">
          <mxGeometry x="283" y="-230" width="130" height="20" as="geometry" />
        </mxCell>
      </root>
    </mxGraphModel>
  </diagram>
</mxfile>
